HIERARCHY
ROOT hip
{
  OFFSET 60.5226 85.4839 -24.0555
  CHANNELS 6 Xposition Yposition Zposition Zrotation Xrotation Yrotation
  JOINT abdomen
  {
    OFFSET 0 20.6881 -0.73152
    CHANNELS 3 Zrotation Xrotation Yrotation
    JOINT chest
    {
      OFFSET 0 11.7043 -0.48768
      CHANNELS 3 Zrotation Xrotation Yrotation
      JOINT neck
      {
        OFFSET 0 22.1894 -2.19456
        CHANNELS 3 Zrotation Xrotation Yrotation
        JOINT head
        {
          OFFSET -0.24384 7.07133 1.2192
          CHANNELS 3 Zrotation Xrotation Yrotation
          JOINT leftEye
          {
            OFFSET 4.14528 8.04674 8.04672
            CHANNELS 3 Zrotation Xrotation Yrotation
            End Site
            {
              OFFSET 1 0 0
            }
          }
          JOINT rightEye
          {
            OFFSET -3.6576 8.04674 8.04672
            CHANNELS 3 Zrotation Xrotation Yrotation
            End Site
            {
              OFFSET 1 0 0
            }
          }
        }
      }
      JOINT rCollar
      {
        OFFSET -2.68224 19.2634 -4.8768
        CHANNELS 3 Zrotation Xrotation Yrotation
        JOINT rShldr
        {
          OFFSET -8.77824 -1.95073 1.46304
          CHANNELS 3 Zrotation Xrotation Yrotation
          JOINT rForeArm
          {
            OFFSET -28.1742 -1.7115 0.48768
            CHANNELS 3 Zrotation Xrotation Yrotation
            JOINT rHand
            {
              OFFSET -22.5879 0.773209 7.07136
              CHANNELS 3 Zrotation Xrotation Yrotation
              JOINT rThumb1
              {
                OFFSET -1.2192 -0.487915 3.41376
                CHANNELS 3 Zrotation Xrotation Yrotation
                JOINT rThumb2
                {
                  OFFSET -3.37035 -0.52449 3.41376
                  CHANNELS 3 Zrotation Xrotation Yrotation
                  End Site
                  {
                    OFFSET -1.78271 -1.18214 1.43049
                  }
                }
              }
              JOINT rIndex1
              {
                OFFSET -7.75947 0.938293 5.60832
                CHANNELS 3 Zrotation Xrotation Yrotation
                JOINT rIndex2
                {
                  OFFSET -2.54057 -0.884171 1.56538
                  CHANNELS 3 Zrotation Xrotation Yrotation
                  End Site
                  {
                    OFFSET -1.62519 -0.234802 1.16502
                  }
                }
              }
              JOINT rMid1
              {
                OFFSET -8.24714 1.18213 3.41376
                CHANNELS 3 Zrotation Xrotation Yrotation
                JOINT rMid2
                {
                  OFFSET -3.10165 -0.590103 1.0647
                  CHANNELS 3 Zrotation Xrotation Yrotation
                  End Site
                  {
                    OFFSET -2.48547 -0.328903 0.83742
                  }
                }
              }
              JOINT rRing1
              {
                OFFSET -8.82822 0.546677 1.51678
                CHANNELS 3 Zrotation Xrotation Yrotation
                JOINT rRing2
                {
                  OFFSET -2.60934 -0.819778 -0.0198488
                  CHANNELS 3 Zrotation Xrotation Yrotation
                  End Site
                  {
                    OFFSET -2.33842 -0.294052 0.168128
                  }
                }
              }
              JOINT rPinky1
              {
                OFFSET -8.27202 -0.0477905 -0.4584
                CHANNELS 3 Zrotation Xrotation Yrotation
                JOINT rPinky2
                {
                  OFFSET -1.82734 -0.647385 -0.700984
                  CHANNELS 3 Zrotation Xrotation Yrotation
                  End Site
                  {
                    OFFSET -1.69225 -0.51767 -0.607171
                  }
                }
              }
            }
          }
        }
      }
      JOINT lCollar
      {
        OFFSET 2.68224 19.2634 -4.8768
        CHANNELS 3 Zrotation Xrotation Yrotation
        JOINT lShldr
        {
          OFFSET 8.77824 -1.95073 1.46304
          CHANNELS 3 Zrotation Xrotation Yrotation
          JOINT lForeArm
          {
            OFFSET 28.1742 -1.7115 0.48768
            CHANNELS 3 Zrotation Xrotation Yrotation
            JOINT lHand
            {
              OFFSET 22.5879 0.773209 7.07136
              CHANNELS 3 Zrotation Xrotation Yrotation
              JOINT lThumb1
              {
                OFFSET 1.2192 -0.487915 3.41376
                CHANNELS 3 Zrotation Xrotation Yrotation
                JOINT lThumb2
                {
                  OFFSET 3.37035 -0.52449 3.41376
                  CHANNELS 3 Zrotation Xrotation Yrotation
                  End Site
                  {
                    OFFSET 1.78271 -1.18214 1.43049
                  }
                }
              }
              JOINT lIndex1
              {
                OFFSET 7.75947 0.938293 5.60832
                CHANNELS 3 Zrotation Xrotation Yrotation
                JOINT lIndex2
                {
                  OFFSET 2.54057 -0.884171 1.56538
                  CHANNELS 3 Zrotation Xrotation Yrotation
                  End Site
                  {
                    OFFSET 1.62519 -0.234802 1.16502
                  }
                }
              }
              JOINT lMid1
              {
                OFFSET 8.24714 1.18213 3.41376
                CHANNELS 3 Zrotation Xrotation Yrotation
                JOINT lMid2
                {
                  OFFSET 3.10165 -0.590103 1.0647
                  CHANNELS 3 Zrotation Xrotation Yrotation
                  End Site
                  {
                    OFFSET 2.48547 -0.328903 0.83742
                  }
                }
              }
              JOINT lRing1
              {
                OFFSET 8.82822 0.546677 1.51678
                CHANNELS 3 Zrotation Xrotation Yrotation
                JOINT lRing2
                {
                  OFFSET 2.60934 -0.819778 -0.0198488
                  CHANNELS 3 Zrotation Xrotation Yrotation
                  End Site
                  {
                    OFFSET 2.33842 -0.294052 0.168128
                  }
                }
              }
              JOINT lPinky1
              {
                OFFSET 8.27202 -0.0477905 -0.4584
                CHANNELS 3 Zrotation Xrotation Yrotation
                JOINT lPinky2
                {
                  OFFSET 1.82734 -0.647385 -0.700984
                  CHANNELS 3 Zrotation Xrotation Yrotation
                  End Site
                  {
                    OFFSET 1.69225 -0.51767 -0.607171
                  }
                }
              }
            }
          }
        }
      }
    }
  }
  JOINT rButtock
  {
    OFFSET -8.77824 4.35084 1.2192
    CHANNELS 3 Zrotation Xrotation Yrotation
    JOINT rThigh
    {
      OFFSET 0 -1.70687 -2.19456
      CHANNELS 3 Zrotation Xrotation Yrotation
      JOINT rShin
      {
        OFFSET 0 -36.8199 0.73152
        CHANNELS 3 Zrotation Xrotation Yrotation
        JOINT rFoot
        {
          OFFSET 0.73152 -45.1104 -5.12064
          CHANNELS 3 Zrotation Xrotation Yrotation
          End Site
          {
            OFFSET -1.1221 -3.69964 12.103
          }
        }
      }
    }
  }
  JOINT lButtock
  {
    OFFSET 8.77824 4.35084 1.2192
    CHANNELS 3 Zrotation Xrotation Yrotation
    JOINT lThigh
    {
      OFFSET 0 -1.70687 -2.19456
      CHANNELS 3 Zrotation Xrotation Yrotation
      JOINT lShin
      {
        OFFSET 0 -36.8199 0.73152
        CHANNELS 3 Zrotation Xrotation Yrotation
        JOINT lFoot
        {
          OFFSET -0.73152 -45.1104 -5.12064
          CHANNELS 3 Zrotation Xrotation Yrotation
          End Site
          {
            OFFSET 1.1221 -3.69964 12.103
          }
        }
      }
    }
  }
}
MOTION
Frames:	5
Frame Time:	0.00833333
71.3616 100.988 65.1146 -175.994 59.409 112.621 -17.0553 12.6221 -1.8188 7.29012 -11.3405 -0.2943 -7.80418 -5.60272 0.357891 21.9695 -32.6688 10.6707 -0 0 0 -0 0 0 -3.61006e-013 1.1959e-012 -8.66245e-013 -14.4172 -32.0894 -19.744 -15.9765 -8.67284 29.6059 0.0125568 -5.19565 -0.727945 -8.75978e-009 -2.95456e-008 -1.1274e-009 -1.51391e-008 -5.09789e-008 -1.98013e-009 -8.75978e-009 -2.95456e-008 -1.1274e-009 7.73091 5.47488 0.417314 -8.75978e-009 -2.95456e-008 -1.12741e-009 2.90554 0.965183 0.102902 -8.75977e-009 -2.95456e-008 -1.1274e-009 10.2786 0.731801 0.0259123 -8.75978e-009 -2.95456e-008 -1.12739e-009 2.22167 -0.733487 -0.20892 -3.6105e-013 1.19585e-012 -8.66568e-013 -4.44046 -50.8114 -17.5892 24.0119 -19.0045 -49.8769 2.5856 -40.7499 6.95514 -4.4144e-009 -3.86187e-009 1.14246e-009 -7.6279e-009 -6.71629e-009 1.81873e-009 -4.41441e-009 -3.86187e-009 1.14247e-009 -7.73091 5.47488 -0.417314 -4.4144e-009 -3.86187e-009 1.14246e-009 -2.90554 0.965183 -0.102902 -4.4144e-009 -3.86187e-009 1.14246e-009 -10.2786 0.731801 -0.0259123 -4.41439e-009 -3.86187e-009 1.14246e-009 -2.22167 -0.733487 0.20892 -2.03217e-016 0 -3.88251e-019 -2.37405 6.27029 7.7578 0.0493848 5.6722 0.469499 14.3757 17.1552 -41.6862 2.03217e-016 0 3.88251e-019 73.6866 -47.249 -12.3167 -0.136097 30.0748 -3.41767 66.4516 -34.3669 71.4352 
71.1797 99.653 61.8934 -174.313 63.6914 111.68 -17.64 14.0917 -1.57056 8.02086 -11.4938 -0.239816 -7.40312 -5.19535 0.182286 21.5967 -31.7147 9.64511 -0 0 0 -0 0 0 -2.8568e-013 1.13506e-012 -1.00369e-012 -8.6815 -24.84 -22.4966 -16.3794 -9.04949 30.4663 -0.0674043 -8.86799 -1.25298 -9.79013e-009 -6.46554e-009 -5.67809e-010 -1.692e-008 -1.10236e-008 -1.03931e-009 -9.79013e-009 -6.46555e-009 -5.67812e-010 7.73091 5.47488 0.417314 -9.79013e-009 -6.46553e-009 -5.67814e-010 2.90554 0.965183 0.102902 -9.79012e-009 -6.46553e-009 -5.67811e-010 10.2786 0.731801 0.0259123 -9.79013e-009 -6.46553e-009 -5.67802e-010 2.22167 -0.733487 -0.20892 -2.85726e-013 1.13501e-012 -1.00401e-012 -5.63301 -50.0582 -17.2883 23.2241 -17.579 -47.5767 2.71737 -41.538 7.15346 -5.28138e-009 -4.75674e-009 3.04769e-009 -9.17998e-009 -8.31266e-009 5.07543e-009 -5.28139e-009 -4.75674e-009 3.0477e-009 -7.73091 5.47488 -0.417314 -5.28138e-009 -4.75674e-009 3.04769e-009 -2.90554 0.965183 -0.102902 -5.28139e-009 -4.75674e-009 3.04769e-009 -10.2786 0.731801 -0.0259123 -5.28138e-009 -4.75674e-009 3.04769e-009 -2.22167 -0.733487 0.20892 -2.03217e-016 0 -3.88251e-019 -0.303695 4.89189 7.30723 0.0410229 5.66913 0.397996 14.2097 17.2292 -41.6977 2.03217e-016 0 3.88251e-019 79.2086 -49.9776 1.23692 -0.0421608 32.4568 -2.67897 51.8982 -28.2302 64.1165 
70.9386 97.9813 58.3552 -171.356 68.1884 109.685 -17.9737 15.5908 -1.79936 8.86553 -11.5622 -0.300572 -7.06612 -4.8501 -0.0404448 21.4437 -30.7379 8.62829 -0 0 0 -0 0 0 -2.13131e-013 1.04404e-012 -1.0789e-012 -3.58719 -19.8447 -24.814 -16.5797 -9.23711 30.9062 -0.164786 -11.4927 -1.63743 -1.00843e-008 8.70109e-009 -3.32486e-010 -1.7427e-008 1.52219e-008 -6.48626e-010 -1.00843e-008 8.70107e-009 -3.32489e-010 7.73091 5.47488 0.417314 -1.00843e-008 8.70109e-009 -3.32489e-010 2.90554 0.965183 0.102902 -1.00843e-008 8.70109e-009 -3.32489e-010 10.2786 0.731801 0.0259123 -1.00844e-008 8.7011e-009 -3.32479e-010 2.22167 -0.733487 -0.20892 -2.13176e-013 1.044e-012 -1.0792e-012 -6.40368 -49.5304 -16.5996 22.2139 -16.0818 -44.3714 2.73234 -41.6383 7.17765 -6.05153e-009 -5.32934e-009 4.27322e-009 -1.05453e-008 -9.32889e-009 7.16799e-009 -6.05153e-009 -5.32934e-009 4.27323e-009 -7.73091 5.47488 -0.417314 -6.05153e-009 -5.32934e-009 4.27322e-009 -2.90554 0.965183 -0.102902 -6.05153e-009 -5.32934e-009 4.27322e-009 -10.2786 0.731801 -0.0259123 -6.05152e-009 -5.32934e-009 4.27322e-009 -2.22167 -0.733487 0.20892 -2.03217e-016 0 -3.88251e-019 1.51142 3.82632 6.34045 0.0382348 5.73322 0.372168 13.7678 17.6933 -40.3076 2.03217e-016 0 3.88251e-019 84.0327 -51.8644 14.348 0.0325137 35.4121 -2.13228 40.7673 -23.9805 58.1405 
70.6162 95.8213 54.5878 -165.801 72.9989 105.431 -17.8484 17.2573 -2.82506 9.9332 -11.5654 -0.542104 -6.82472 -4.63892 -0.333356 21.5393 -29.5979 7.57099 -0 0 0 -0 0 0 -1.25491e-013 8.95035e-013 -1.11926e-012 0.0810334 -17.3458 -26.3697 -16.5271 -9.18364 30.7991 -0.214836 -12.6416 -1.80842 -9.45102e-009 1.25074e-008 -6.35888e-010 -1.63276e-008 2.17835e-008 -1.17642e-009 -9.45102e-009 1.25074e-008 -6.35894e-010 7.73091 5.47488 0.417314 -9.45103e-009 1.25075e-008 -6.35892e-010 2.90554 0.965183 0.102902 -9.45102e-009 1.25075e-008 -6.35892e-010 10.2786 0.731801 0.0259123 -9.45103e-009 1.25075e-008 -6.35883e-010 2.22167 -0.733487 -0.20892 -1.25534e-013 8.95014e-013 -1.11951e-012 -6.78061 -49.6571 -15.4792 20.6522 -14.1825 -39.3679 2.53464 -40.4905 6.8853 -7.31161e-009 -5.96375e-009 4.67267e-009 -1.2732e-008 -1.04199e-008 7.83016e-009 -7.31161e-009 -5.96374e-009 4.67268e-009 -7.73091 5.47488 -0.417314 -7.31161e-009 -5.96375e-009 4.67267e-009 -2.90554 0.965183 -0.102902 -7.31162e-009 -5.96375e-009 4.67267e-009 -10.2786 0.731801 -0.0259123 -7.31161e-009 -5.96374e-009 4.67266e-009 -2.22167 -0.733487 0.20892 -2.03217e-016 0 -3.88251e-019 2.9431 3.39873 4.562 0.0408112 5.62086 0.412051 12.9696 18.8215 -36.858 2.03217e-016 0 3.88251e-019 87.5918 -53.5297 27.1909 0.137581 39.1554 -1.86904 32.1051 -22.9875 50.4754 
70.2463 93.1547 50.6679 -155.066 77.8634 96.1337 -17.303 18.9979 -4.4209 11.1531 -11.5378 -0.906841 -6.54924 -4.48033 -0.664017 21.7378 -28.2901 6.43529 -0 0 0 -0 0 0 -1.01635e-014 6.98279e-013 -1.1355e-012 2.60673 -16.2869 -27.3741 -16.3364 -8.99845 30.3965 -0.223719 -12.9465 -1.8534 -8.1108e-009 1.04358e-008 -1.24313e-009 -1.40042e-008 1.81547e-008 -2.22179e-009 -8.1108e-009 1.04358e-008 -1.24314e-009 7.73091 5.47488 0.417314 -8.11081e-009 1.04358e-008 -1.24314e-009 2.90554 0.965183 0.102902 -8.1108e-009 1.04358e-008 -1.24313e-009 10.2786 0.731801 0.0259123 -8.11081e-009 1.04358e-008 -1.24313e-009 2.22167 -0.733487 -0.20892 -1.02064e-014 6.98282e-013 -1.1357e-012 -6.81701 -50.135 -13.9985 18.2393 -11.4884 -33.1084 2.22915 -38.499 6.40922 -8.87654e-009 -6.62125e-009 4.69106e-009 -1.54341e-008 -1.15326e-008 7.83236e-009 -8.87654e-009 -6.62124e-009 4.69107e-009 -7.73091 5.47488 -0.417314 -8.87654e-009 -6.62125e-009 4.69106e-009 -2.90554 0.965183 -0.102902 -8.87654e-009 -6.62125e-009 4.69106e-009 -10.2786 0.731801 -0.0259123 -8.87653e-009 -6.62124e-009 4.69105e-009 -2.22167 -0.733487 0.20892 -2.03217e-016 0 -3.88251e-019 4.18199 3.40926 2.20788 0.0467188 5.39614 0.489433 11.7624 20.3811 -31.8726 2.03217e-016 0 3.88251e-019 90.8125 -54.1921 40.8109 0.275991 43.567 -1.74816 23.9043 -22.9602 40.5263 
